<?xml version="1.0" encoding="UTF-8" standalone="no"?>
<svg width="723" height="235" viewBox="0 0 723 235" version="1.1" xmlns="http://www.w3.org/2000/svg">
	<style>
		path { fill: #56b7f8 }
	</style>
	<path d="M592,87 C598.961573,87 605.499969,93.6096426 612,107 C620.692353,97.441377 631.894164,92.7475728 645,93 C658.625067,92.7475728 668.673043,95.6692264 675,102 C682.134649,107.356016 685.5,115.594122 685,126 C685.5,136.860247 684.105783,147.636839 681,159 C678.528832,169.477725 676.509622,177.284766 675,182 C674.009609,186.672515 673.384615,190.552088 673,194 C673.384615,196.682863 674.442297,198.215534 677,198 C679.442322,198.215534 682.999979,196.395487 687,193 C691.46156,189.115192 695.692287,185.139827 700,181 C704.153867,176.518425 708.048059,172.54306 712,169 C715.163479,165.262765 717.615378,163.442718 719,163 C721.65386,163.442718 723,166.699644 723,173 C723,186.624663 716.365451,199.556572 703,212 C680.78835,225.037606 666.557723,231.551456 660,232 C659.82692,231.551456 659.442309,231.455664 659,231 C643.865308,231.264078 636.173077,219.002712 636,194 C636.173077,183.942342 637.182682,174.267358 639,165 C641.221164,156.64138 642.711534,150.223321 644,146 C644.63462,142.176679 645.115385,138.057626 645,134 C645.115385,126.945597 641.12504,123.497087 633,123 C625.163422,123.497087 617.567344,129.388291 610,141 C603.144195,152.953457 598.288474,165.166927 596,178 L596,180 C595.788462,186.337249 596.798067,193.042684 599,200 C600.836549,206.836928 601.846154,211.626524 602,214 C601.846154,220.822686 593.673159,227.240745 577,234 C574.826911,234.52104 572.615394,235 571,235 C565.884591,235 562.567317,232.50941 561,228 C558.913452,222.546901 558,214.787755 558,204 C558,177.045171 559.057682,157.407827 561,145 C564.057707,127.328713 570.596103,110.565126 581,95 C584.250017,89.6821738 587.99998,87 592,87 L592,87 L592,87 L592,87 Z"></path>
	<path d="M514,206 C498.496358,224.043122 480.329745,233 459,233 C437.956324,233 422.090496,227.558456 412,217 C400.999653,205.791954 395.822888,192.260327 396,176 C395.822888,153.157672 403.01284,133.414017 418,117 C432.15655,100.282704 451.23389,92 475,92 C485.554444,92 494.182386,93.3483472 501,96 C512.013735,100.668056 517.669831,105.002029 518,109 C517.669831,112.129114 509.760884,113.718237 494,114 C478.124619,113.910861 464.895107,119.40056 454,130 C443.612529,141.167063 438.291965,154.891311 438,171 C438.291965,180.125043 440.832414,187.396487 446,193 C450.994366,199.146546 458.184318,202.084016 467,202 C476.782607,202.084016 484.499822,200.157806 491,196 C477.02216,187.05938 470.215672,173.672219 470,156 C470.023937,146.897495 473.331315,138.470325 480,131 C486.944495,123.253036 495.668304,119.400615 506,119 C516.950882,119.207991 524.572231,122.145462 529,128 C533.775508,134.088145 536.076293,141.74483 536,151 C536.076293,160.42935 533.871374,170.301177 529,181 L531,181 C539.623414,180.510245 546.909232,177.524619 553,172 C555.345569,169.434415 557.310823,167.411894 559,166 C560.570317,163.944663 562.247972,163.077869 564,163 C566.657876,163.077869 568,166.256116 568,173 C568,184.362764 564.548823,193.175176 558,199 C550.743908,204.925234 543.122558,207.862705 535,208 C526.441619,207.862705 519.395466,207.284842 514,206 L514,206 L514,206 Z M511,173 C514.418046,166.076888 515.999338,159.346187 516,153 C515.999338,146.269198 513.95296,143 510,143 C508.185807,143 506.790549,144.249988 506,147 C504.558103,149.250012 504,151.653835 504,154 C504,161.653885 506.418447,167.999975 511,173 L511,173 L511,173 Z"></path>
	<path d="M361,64 C355.589015,56.3122739 353,48.0480923 353,39 C353,30.3663222 354.390397,23.0150443 357,17 C359.952069,11.291262 362.589029,6.9669809 365,4 C367.575355,1.39337946 370.452038,0 374,0 C379.082219,0 383.972581,3.98794811 388,12 C392.794543,19.9399798 395,26.6185917 395,32 C395,41.994044 391.500035,49.8257975 385,55 C377.499965,61.1651935 369.589085,64 361,64 L361,64 L361,64 Z M349,231 C329.553383,230.987744 320,213.037452 320,177 C320,157.553897 322.388346,139.795586 327,124 C334.61686,99.2868313 343.023837,87 352,87 C357.927338,87 362.321894,90.7436439 366,98 C368.245081,103.990583 369.487021,109.654044 369,115 C369.29595,122.900983 367.003138,136.435695 362,156 C358.022823,172.720788 355.825545,183.183793 356,187 C355.825545,191.247147 356.82865,194.030882 359,196 C360.841132,197.102636 363.229477,197.870563 366,198 C368.770523,197.870563 372.257508,196.046737 376,192 C380.664611,188.751321 384.868099,184.7677 389,180 C393.275203,176.128392 397.144323,172.144771 401,169 C404.213933,164.849356 406.650045,163.025529 408,163 C410.662526,163.025529 412,166.289219 412,173 C412,186.255619 405.264865,199.358373 392,212 C378.32392,224.892327 363.946079,231.179729 349,231 L349,231 L349,231 Z"></path>
	<path d="M214,103 C214.319783,116.062142 212.014329,130.626099 207,147 C207.787599,153.047264 207.97972,158.987826 208,165 C207.97972,170.485859 208.363962,175.468265 209,180 C212.01432,187.349566 215.664623,192.044526 220,194 C223.925959,193.769231 228.152626,190.463596 233,184 C237.374582,177.240858 242.081552,169.336078 247,160 C244.579165,151.322493 243.426438,142.986544 243,135 C243.426438,121.331915 245.539771,111.271287 250,105 C254.953852,96.8987452 262.830821,92.8744939 273,93 C283.964471,92.8744939 290.976895,96.8987452 294,105 C295.779998,108.013511 296.452422,111.462869 296,115 C296.452422,122.194366 294.723331,129.236806 291,136 C287.806864,143.609348 282.235349,153.047175 275,165 C278.008619,174.893438 283.195891,179.97166 290,180 C298.565819,179.780026 305.866425,176.809745 312,171 C314.319885,168.761122 316.289127,166.748996 318,165 C319.555237,163.299587 321.236297,162.437247 323,162 C325.655152,162.437247 327,165.599159 327,172 C327,183.804378 323.589849,192.475681 317,198 C309.949038,203.398813 301.351614,206.129555 291,206 C277.336102,206.129555 266.481254,200.188993 258,188 C235.933523,217.436043 217.105645,232 202,232 C195.971994,232 190.112297,223.568235 184,207 C178.584852,189.840671 174.166064,167.036581 171,138 C168.786589,120.086279 170.131438,107.05537 175,99 C179.353394,93.0660962 187.614606,90 200,90 C204.521527,90 208.075769,91.3893248 211,94 C213.070995,96.9467076 214.319783,99.964896 214,103 L214,103 L214,103 L214,103 Z"></path>
	<path d="M178,163 C181.276485,162.587174 183,167.01198 183,176 C183,180.671367 180.989233,186.490948 177,193 C172.946043,200.150335 167.727623,206.402777 161,212 C154.89682,217.753535 147.763383,222.418819 140,226 C132.060012,229.729477 124.399946,231.557114 117,232 C106.78153,231.557114 99.9832218,222.611312 97,205 C91.5570228,212.992025 85.0459667,219.773521 77,225 C68.9595868,230.354736 58.187619,233 45,233 C31.1854813,233 20.3177626,228.767577 12,220 C3.8483737,211.837633 -0.173160951,201.545151 0,189 C0.0183435716,156.719275 10.8381868,130.939974 32,112 C41.6704149,104.198357 50.2401138,99.0040205 58,97 C66.1349892,94.0019915 74.5131863,92.751503 83,93 C92.1316024,92.751503 99.3129143,94.2905658 105,97 C107.547609,91.7895513 110.611635,89 114,89 C120.761375,89 127.128805,91.9338384 133,98 C139.19359,103.669368 142.209741,109.200375 142,114 C139.528677,120.743519 135.602893,128.342641 130,137 C128.900235,146.042128 128.134229,158.450822 128,174 C128.134229,190.386853 130.144996,198.370741 134,198 C139.145708,198.370741 151.210312,188.366834 170,168 C173.807846,164.511003 176.297368,162.587174 178,163 L178,163 L178,163 Z M42,180 C42,194.572422 47.4825322,202 58,202 C70.1824799,201.807073 79.8971423,195.537039 88,183 C90.2852539,178.945316 92.4975038,173.736365 94,168 C94.2288557,145.954876 96.1525512,127.434161 100,112 C84.4178325,115.086832 70.8557791,122.610873 59,135 C47.7710866,146.533822 42,161.581903 42,180 L42,180 L42,180 Z"></path>
</svg>
