<?xml version="1.0" encoding="UTF-8" standalone="no"?>
<svg>
	<g
		 transform="translate(0,-952.36217)"
		 id="layer1">
		<rect
			 width="100"
			 height="100"
			 x="0"
			 y="952.36218"
			 id="rect3844"
			 style="fill:#ffffff;fill-opacity:0.43529412;stroke:none" />
		<path
			 d="m 49,1040.3622 -17,-21 -9,5.6 0,-1.6 11.4,-7 14.6,19 47.514062,-62.29378 z"
			 id="path3064"
			 style="fill:#000000;fill-opacity:0.2745098;stroke:none" />
		<path
			 d="M 9.4,36 5,36 22,55 21,49 z"
			 transform="translate(0,952.36217)"
			 id="path3066"
			 style="fill:#000000;fill-opacity:0.2745098;stroke:none" />
		<path
			 d="M 23,71 34.4,64 28,56 z"
			 transform="translate(0,952.36217)"
			 id="path3058"
			 style="fill:#2485c6;fill-opacity:1;stroke:#000000;stroke-width:0.5;stroke-miterlimit:4;stroke-opacity:1;stroke-dasharray:none" />
		<path
			 d="M 28,56 23,71 21,49 96,21 z"
			 transform="translate(0,952.36217)"
			 id="path3056"
			 style="fill:#3d9edf;fill-opacity:1;stroke:#000000;stroke-width:0.5;stroke-miterlimit:4;stroke-opacity:1;stroke-dasharray:none" />
		<path
			 d="M 4,30 96,21 49,83 28,56 96,21 21,49 z"
			 transform="translate(0,952.36217)"
			 id="path3054"
			 style="fill:#56b7f8;fill-opacity:1;stroke:#000000;stroke-width:0.5;stroke-linecap:butt;stroke-linejoin:miter;stroke-miterlimit:4;stroke-opacity:1;stroke-dasharray:none" />
	</g>
</svg>